<?xml version="1.0" encoding="UTF-8" standalone="no"?>
<svg
   xmlns:dc="http://purl.org/dc/elements/1.1/"
   xmlns:cc="http://creativecommons.org/ns#"
   xmlns:rdf="http://www.w3.org/1999/02/22-rdf-syntax-ns#"
   xmlns:svg="http://www.w3.org/2000/svg"
   xmlns="http://www.w3.org/2000/svg"
   xmlns:sodipodi="http://sodipodi.sourceforge.net/DTD/sodipodi-0.dtd"
   xmlns:inkscape="http://www.inkscape.org/namespaces/inkscape"
   width="210mm"
   height="297mm"
   viewBox="0 0 210 297"
   version="1.1"
   id="svg99"
   inkscape:version="1.0.1 (c497b03c, 2020-09-10)"
   sodipodi:docname="BM_Light_BG.svg">
  <defs
     id="defs93" />
  <sodipodi:namedview
     id="base"
     pagecolor="#ffffff"
     bordercolor="#666666"
     borderopacity="1.0"
     inkscape:pageopacity="0.0"
     inkscape:pageshadow="2"
     inkscape:zoom="0.35"
     inkscape:cx="400"
     inkscape:cy="560"
     inkscape:document-units="mm"
     inkscape:current-layer="layer1"
     inkscape:document-rotation="0"
     showgrid="false"
     inkscape:window-width="1252"
     inkscape:window-height="829"
     inkscape:window-x="0"
     inkscape:window-y="23"
     inkscape:window-maximized="0" />
  <metadata
     id="metadata96">
    <rdf:RDF>
      <cc:Work
         rdf:about="">
        <dc:format>image/svg+xml</dc:format>
        <dc:type
           rdf:resource="http://purl.org/dc/dcmitype/StillImage" />
        <dc:title></dc:title>
      </cc:Work>
    </rdf:RDF>
  </metadata>
  <g
     inkscape:label="Layer 1"
     inkscape:groupmode="layer"
     id="layer1">
    <rect
       inkscape:export-ydpi="8.0100002"
       inkscape:export-xdpi="8.0100002"
       style="fill:#ffffff;fill-rule:evenodd;stroke:#000000;stroke-width:1.9;stroke-miterlimit:4;stroke-dasharray:none"
       id="rect102-4"
       width="100.58987"
       height="100.58987"
       x="55.538399"
       y="97.871735" />
    <path
       inkscape:export-ydpi="8.0100002"
       inkscape:export-xdpi="8.0100002"
       style="fill:#ffffff;fill-opacity:1;stroke:#000000;stroke-width:3.679;stroke-linecap:square;stroke-miterlimit:4;stroke-dasharray:none"
       d="m 94.296987,190.98222 c 0.266909,-0.18686 0.90645,-1.50936 1.696771,-3.50876 1.560128,-3.94685 1.97309,-4.44235 3.541408,-4.24914 5.357694,0.66003 8.373224,0.661 12.290534,0.004 3.1099,-0.5216 3.04978,-0.56653 4.91532,3.67349 2.09026,4.75074 1.98353,4.7099 6.86084,2.62407 4.98297,-2.13101 4.98873,-2.14383 3.01778,-6.7253 -1.9094,-4.43838 -1.94768,-4.26227 1.51588,-6.97672 2.16473,-1.69655 4.8815,-4.54059 6.53184,-6.83784 2.03361,-2.83075 1.94267,-2.81502 6.33208,-1.09563 4.72994,1.8528 4.72151,1.85697 6.77074,-3.33186 1.88513,-4.7734 1.90922,-4.71717 -2.8506,-6.65152 -1.67094,-0.67906 -3.15591,-1.2846 -3.29994,-1.34567 -0.75949,-0.32194 -0.8854,-1.18172 -0.53821,-3.67497 0.40908,-2.93758 0.31319,-7.96847 -0.20735,-10.87793 -0.51254,-2.86488 -0.48091,-2.90634 3.55892,-4.66198 4.95105,-2.15168 4.87211,-1.9631 2.82447,-6.748 -2.24775,-5.25247 -2.11409,-5.18919 -6.76297,-3.20204 -4.64159,1.98402 -3.98281,2.17554 -7.60666,-2.21137 -1.72595,-2.08936 -4.33803,-4.49643 -6.63423,-6.11352 -2.38649,-1.68066 -2.39887,-1.77756 -0.75319,-5.89759 1.91118,-4.78477 1.88464,-4.84407 -3.04626,-6.80409 -5.02142,-1.99599 -5.02489,-1.99465 -6.81305,2.64436 -1.44441,3.74718 -1.874,4.25837 -3.44728,4.10205 -6.17957,-0.61402 -6.25976,-0.61731 -9.04128,-0.37271 -1.53086,0.13462 -3.14968,0.33011 -3.597353,0.43443 -2.512261,0.58537 -2.946741,0.23822 -4.58747,-3.66536 -1.975789,-4.70073 -2.068589,-4.73606 -6.947529,-2.64582 -4.913541,2.10504 -4.935001,2.15557 -2.91292,6.85587 1.857618,4.31803 1.89806,4.13137 -1.458002,6.72947 -2.116829,1.63873 -4.729869,4.35158 -6.536949,6.78661 -2.22772,3.00183 -2.086371,2.97553 -6.50667,1.21051 -4.658411,-1.86008 -4.641551,-1.86845 -6.67621,3.31165 -1.9178,4.88264 -1.943911,4.81927 2.73847,6.64554 4.37939,1.70807 4.41564,1.75732 3.88619,5.27854 -0.34012,2.26198 -0.23686,7.76471 0.19275,10.27205 0.56705,3.30951 0.61566,3.24186 -3.721661,5.17968 -4.724939,2.11099 -4.65471,1.92608 -2.568269,6.76366 2.196749,5.09335 2.07823,5.04188 6.89332,2.99345 4.25561,-1.81043 4.22804,-1.81388 6.17566,0.77395 1.77074,2.35279 4.639749,5.1651 7.38228,7.23635 2.974959,2.24678 2.928429,2.00704 1.235271,6.36664 -1.91266,4.92483 -2.015112,4.67751 2.739689,6.61306 3.478871,1.41617 4.62725,1.64917 5.41384,1.09843 z"
       id="path189-0-2-85" />
    <g
       inkscape:export-ydpi="8.0100002"
       inkscape:export-xdpi="8.0100002"
       id="g209-9-5-2"
       style="fill:#000000;stroke-width:0.474777;stroke-miterlimit:4;stroke-dasharray:none"
       transform="matrix(1.3122238,0,0,1.2686086,-250.90931,-50.784157)">
      <path
         id="path197-8-2-8"
         d="m 270.37001,142.57733 c -3.58064,-1.60832 -2.45547,-6.96052 1.46328,-6.96052 3.55786,0 4.97447,4.59709 2.04271,6.62881 -0.89117,0.61759 -2.52532,0.77219 -3.50599,0.33171 z"
         style="fill:#000000;fill-opacity:1;stroke:#000000;stroke-width:0.474777;stroke-miterlimit:4;stroke-dasharray:none" />
      <path
         id="path195-7-1-3"
         d="m 260.76816,177.67296 c -0.4923,-0.4923 -0.34879,-0.8204 4.87339,-11.14251 l 5.15057,-10.18056 -4.62789,-9.17592 c -4.8542,-9.6246 -4.88717,-9.70862 -3.97253,-10.12536 0.71481,-0.32569 1.05426,0.027 2.17191,2.25657 4.56161,9.09984 10.19874,9.37219 14.64291,0.70747 1.63782,-3.19324 2.19488,-3.66863 2.94943,-2.51705 l 0.30642,0.46768 -4.65617,9.19612 -4.65617,9.19612 5.14756,10.20193 c 5.39021,10.68286 5.36123,10.61548 4.78943,11.13294 -0.76717,0.69429 -1.17688,0.26904 -2.81688,-2.92364 -3.19821,-6.22616 -5.09019,-8.18912 -7.87871,-8.17421 -2.94763,0.0157 -5.83378,2.79916 -8.55515,8.25057 -1.60847,3.22209 -2.04509,3.65288 -2.86812,2.82985 z"
         style="fill:#000000;fill-opacity:1;stroke:#000000;stroke-width:0.474777;stroke-miterlimit:4;stroke-dasharray:none" />
    </g>
  </g>
</svg>
